<svg width="31" height="26" viewBox="0 0 31 26" fill="none" xmlns="http://www.w3.org/2000/svg">
<path fill-rule="evenodd" clip-rule="evenodd" d="M27.6926 0.213637C28.0614 0.0564665 28.4651 0.00225949 28.8617 0.0566573C29.2583 0.111055 29.6332 0.27207 29.9475 0.522942C30.2617 0.773813 30.5038 1.10537 30.6485 1.48311C30.7932 1.86084 30.8353 2.27094 30.7704 2.67072L27.3851 23.4592C27.0567 25.4645 24.8834 26.6145 23.0669 25.6156C21.5474 24.78 19.2906 23.4925 17.2606 22.1491C16.2456 21.4767 13.1365 19.3233 13.5186 17.791C13.8469 16.4809 19.0711 11.5576 22.0564 8.63059C23.2281 7.48063 22.6938 6.81725 21.3101 7.87503C17.8741 10.5014 12.3573 14.4953 10.5333 15.6195C8.92426 16.6108 8.0854 16.7801 7.08235 16.6108C5.25239 16.3026 3.55527 15.8251 2.17011 15.2433C0.298359 14.4575 0.389409 11.8523 2.16862 11.0937L27.6926 0.213637Z" fill="#12CA97"/>
</svg>
