<svg width="403" height="631" viewBox="0 0 403 631" fill="none" xmlns="http://www.w3.org/2000/svg">
    <g opacity="0.03">
        <path d="M265.84 436.354C248.236 442.089 241.55 456.149 253.056 464.176C276.728 480.692 374.182 472.533 378.767 461.338C383.284 450.308 302.573 424.383 265.84 436.354Z" stroke="#660FF1" stroke-width="3" stroke-miterlimit="10"/>
        <path d="M309.46 399.618C349.67 388.658 417.188 466.692 389.318 485.115C372.183 496.443 330.703 495.027 296.876 491.304C265.12 487.81 219.744 473.521 208.55 449.791C202.622 437.193 206.18 419.244 218.735 412.958C228.451 408.095 241.567 410.283 244.461 409.474C258.255 413.926 260.279 415.657 271.269 416.701C285.634 418.067 298.401 402.631 309.46 399.618Z" stroke="#660FF1" stroke-width="3" stroke-miterlimit="10"/>
        <path d="M350.258 361.237C396.959 367.039 447.708 481.017 397.048 507.247C364.785 523.953 308.539 516.576 269.334 507.744C233.321 499.632 173.355 472.56 161.223 433.761C154.17 411.218 162.74 379.504 187.294 370.331C206.867 363.021 232.085 369.307 236.526 369.791C262.772 380.777 264.894 386.367 284.437 390.13C310.312 395.106 330.741 358.801 350.258 361.237Z" stroke="#660FF1" stroke-width="3" stroke-miterlimit="10"/>
        <path d="M388.1 323.112C439.662 333.807 475.271 495.505 401.821 529.632C354.417 551.655 283.388 538.444 238.836 524.437C198.531 511.769 124.225 471.907 110.938 417.984C102.922 385.465 116.299 340.056 152.892 327.956C182.295 318.229 219.847 328.211 225.625 330.359C266.023 345.387 266.535 357.329 294.66 363.81C332.02 372.443 361.095 317.523 388.1 323.112Z" stroke="#660FF1" stroke-width="3" stroke-miterlimit="10"/>
        <path d="M423.665 286.721C480.768 302.15 500.464 511.564 404.318 553.753C341.71 580.981 255.928 562.081 206.065 542.869C161.423 525.673 72.8711 473.024 58.361 403.941C49.4419 361.476 67.5657 302.355 116.201 287.307C155.453 275.174 205.038 289.406 212.44 292.652C264.515 315.487 265.861 330.074 302.56 339.227C351.413 351.517 389.484 277.488 423.665 286.721Z" stroke="#660FF1" stroke-width="3" stroke-miterlimit="10"/>
        <path d="M77.9123 247.143C126.995 232.606 188.585 251.068 197.658 255.431C261.268 286.024 263.62 303.194 308.88 315.106C369.234 330.989 416.527 237.662 457.603 250.79C520.697 270.957 524.238 528.355 405.188 578.336C327.507 610.948 226.806 586.203 171.663 561.76C122.691 540.055 19.9573 474.619 4.19015 390.362C-5.61107 337.954 17.2258 265.115 77.9123 247.143Z" stroke="#660FF1" stroke-width="3" stroke-miterlimit="10"/>
        <path d="M609.036 220.621C589.702 220.495 566.516 194.408 583.855 190.052C593.87 187.532 620.384 191.517 630.799 198.608C645.467 208.587 622.34 220.711 609.036 220.621Z" stroke="#660FF1" stroke-width="3" stroke-miterlimit="10"/>
        <path d="M556.493 193.705C558.385 190.204 567.244 188.649 575.328 184.386C591.726 175.733 594.078 171.622 605.725 166.404C610.267 164.365 616.378 161.686 622.344 162.913C631.481 164.793 633.761 172.928 645.356 187.257C660.39 205.875 666.083 210.689 661.788 220.555C660.786 222.849 659.491 230.279 652.251 234.811C642.224 241.076 630.471 236.236 615.777 240.383C598.131 245.356 589.382 254.208 581.725 250.296C576.33 247.541 576.129 239.996 572.09 226.857C569.013 216.849 567.078 210.281 563.337 204.924C558.85 198.545 554.388 197.597 556.493 193.705Z" stroke="#660FF1" stroke-width="3" stroke-miterlimit="10"/>
        <path d="M526.94 201.002C527.268 194.796 539.797 191.792 550.122 182.824C571.297 164.428 561.487 151.283 578.46 137.843C585.662 132.138 596.963 126.611 608.29 127.682C624.364 129.204 629.763 142.123 654.509 168.317C686.862 202.563 700.643 209.27 697.622 227.52C697.004 231.24 696.403 245.522 683.76 254.119C666.897 265.583 646.685 255.153 620.286 263.769C590.789 273.383 579.764 293.938 569.818 289.684C562.911 286.731 565.557 274.835 560.247 251.635C556.489 235.145 554.166 225.508 546.653 217.614C537.172 207.659 526.586 207.742 526.94 201.002Z" stroke="#660FF1" stroke-width="3" stroke-miterlimit="10"/>
        <path d="M497.358 208.219C496.079 199.324 512.302 194.852 524.886 181.18C550.795 153.033 528.457 131.034 551.166 109.199C560.886 99.857 577.557 91.4993 594.206 92.3712C617.282 93.5779 625.809 111.182 663.667 149.297C713.44 199.099 734.875 207.868 733.469 234.406C733.192 239.581 733.32 260.679 715.281 273.357C691.579 290.009 662.866 273.97 624.812 287.082C583.434 301.337 570.172 333.585 557.908 329.003C549.491 325.834 554.882 309.602 548.401 276.341C543.926 253.369 541.229 240.708 529.961 230.232C515.439 216.733 498.725 217.8 497.358 208.219Z" stroke="#660FF1" stroke-width="3" stroke-miterlimit="10"/>
        <path d="M467.707 215.416C464.839 203.843 484.71 197.885 499.582 179.519C530.17 141.606 495.257 110.837 523.808 80.5391C536.013 67.5765 558.095 56.3842 580.058 57.0407C610.152 57.9424 621.671 80.2904 672.74 130.261C739.776 195.704 768.949 206.512 769.209 241.275C769.26 247.906 770.104 275.8 746.692 292.575C716.121 314.396 678.961 292.758 629.227 310.378C575.959 329.255 560.46 373.225 545.929 368.305C536 364.93 544.139 344.349 536.486 301.029C531.283 271.573 528.227 255.905 513.206 242.833C493.629 225.806 470.792 227.862 467.707 215.416Z" stroke="#660FF1" stroke-width="3" stroke-miterlimit="10"/>
        <path d="M438.001 222.61C442.803 237.927 471.755 234.877 496.382 255.431C515.162 271.102 518.575 289.771 524.507 325.714C533.315 379.09 522.44 404.024 533.882 407.601C550.702 412.862 568.433 357.166 633.599 333.671C694.988 311.538 740.671 338.823 778.06 311.79C806.884 290.948 805.282 256.257 804.907 248.138C802.921 205.159 766.056 192.303 681.753 111.218C617.469 49.3924 602.972 22.3069 565.842 21.7068C538.569 21.2659 511.062 35.2993 496.382 51.8755C462.005 90.6638 509.562 130.218 474.222 177.855C457.096 200.939 433.53 208.362 438.001 222.61Z" stroke="#660FF1" stroke-width="3" stroke-miterlimit="10"/>
        <path d="M683.691 469.132C678.646 467.143 668.052 470.975 667.115 476.946C666.053 483.719 678.041 489.322 683.308 487.581C689.538 485.519 690.386 471.764 683.691 469.132Z" stroke="#660FF1" stroke-width="3" stroke-miterlimit="10"/>
        <path d="M697.907 505.119C706.507 498.863 710.266 487.382 714.565 467.703C718.827 448.189 718.158 434.219 714.412 433.204C712.371 432.657 706.588 436.937 701.628 440.074C692.342 445.928 676.447 445.279 672.373 445.912C657.458 448.233 653.077 452.542 646.843 460.797C643.958 464.61 637.229 473.064 634.268 483.009C629.751 498.071 609.505 502.712 611.972 508.749C614.047 513.788 634.106 515.011 647.112 515.154C665.751 515.36 684.612 514.779 697.907 505.119Z" stroke="#660FF1" stroke-width="3" stroke-miterlimit="10"/>
        <path d="M712.814 521.937C726.949 510.758 732.51 491.997 741.075 456.912C749.777 421.658 749.722 397.476 745.435 396.574C742.217 395.885 731.798 404.601 722.943 410.83C706.251 422.622 676.37 420.683 670.213 421.439C642.13 424.814 635.209 432.899 624.326 448.183C619.792 454.548 607.353 470.063 601.685 488.387C592.962 516.457 551.605 523.807 555.027 534.213C557.886 542.879 596.239 544.209 620.371 543.496C654.445 542.465 688.929 540.834 712.814 521.937Z" stroke="#660FF1" stroke-width="3" stroke-miterlimit="10"/>
        <path d="M727.639 538.646C747.323 522.547 754.622 496.492 767.5 446.011C780.579 395.006 781.188 360.67 776.373 359.815C771.962 359.019 756.915 372.148 744.191 381.487C720.135 399.246 676.23 395.981 667.984 396.836C626.742 401.12 617.243 413.098 601.74 435.442C595.553 444.357 577.412 466.937 569.03 493.628C556.114 534.711 493.642 544.762 498.009 559.542C501.657 571.835 558.313 573.323 593.563 571.695C643.063 569.524 693.22 566.799 727.639 538.646Z" stroke="#660FF1" stroke-width="3" stroke-miterlimit="10"/>
        <path d="M742.418 555.345C767.662 534.326 776.692 500.975 793.883 435.098C811.354 368.348 812.633 323.868 807.272 323.042C801.664 322.17 781.981 339.658 765.395 352.114C733.929 375.801 676.051 371.243 665.717 372.221C611.316 377.356 599.167 393.256 579.112 422.685C571.246 434.143 547.429 463.794 536.341 498.856C519.218 552.948 435.631 565.705 440.958 584.857C445.385 600.77 520.343 602.358 566.716 599.885C631.621 596.48 697.481 592.764 742.418 555.345Z" stroke="#660FF1" stroke-width="3" stroke-miterlimit="10"/>
        <path d="M663.428 347.595C595.873 353.562 581.183 373.454 556.467 409.922C546.964 423.942 517.424 460.645 503.626 504.074C482.319 571.182 377.604 586.64 383.881 610.162C389.097 629.722 482.353 631.38 539.848 628.064C620.184 623.423 701.734 618.722 757.179 572.037C787.985 546.095 798.741 505.457 820.248 424.177C842.079 341.681 844.026 287.065 838.146 286.263C831.328 285.335 807.038 307.149 786.583 322.731C747.702 352.342 675.855 346.498 663.428 347.595Z" stroke="#660FF1" stroke-width="3" stroke-miterlimit="10"/>
        <path d="M114.134 188.132C121.805 211.007 176.862 200.262 242.402 251.785C265.887 270.247 281.633 289.558 312.715 292.562C315.852 292.864 346.99 295.513 368.966 279.964C396.614 260.404 379.739 233.269 412.006 195.425C423.891 181.485 425.868 185.533 434.591 174.539C471.819 127.612 415.04 79.9722 447.802 32.3156C462.883 10.3786 485.302 5.34279 483.171 2.47842C473.975 -9.81118 93.4068 126.492 114.134 188.132Z" stroke="#660FF1" stroke-width="3" stroke-miterlimit="10"/>
        <path d="M321.238 261.289C323.122 261.09 343.653 262.284 357.737 251.291C375.545 237.41 362.851 218.297 383.254 192.495C390.763 182.993 391.807 185.569 397.151 178.054C419.949 145.982 379.031 113.718 399.068 82.3227C408.341 67.7887 422.979 64.4569 420.802 63.0379C410.953 56.5666 159.757 152.168 179.487 193.768C186.885 209.369 227.27 203.833 273.481 237.436C290.283 249.646 301.661 263.355 321.238 261.289Z" stroke="#660FF1" stroke-width="3" stroke-miterlimit="10"/>
        <path d="M329.761 230.013C330.298 228.962 340.338 228.986 346.508 222.617C354.52 214.355 345.988 203.349 354.503 189.567C357.626 184.508 357.754 185.589 359.714 181.568C368.131 164.272 342.988 147.484 350.339 132.326C353.778 125.192 360.17 123.975 358.466 123.594C346.005 124.97 226.362 177.938 244.819 199.404C252.025 207.791 277.819 207.39 304.538 223.088C314.693 229.055 321.34 233.425 329.761 230.013Z" stroke="#660FF1" stroke-width="3" stroke-miterlimit="10"/>
        <path d="M338.284 198.741C331.67 183.706 305.633 178.594 296.096 184.154C282.033 192.362 294.029 203.051 310.159 205.04C322.214 206.515 345.852 215.947 338.284 198.741Z" stroke="#660FF1" stroke-width="3" stroke-miterlimit="10"/>
    </g>
</svg>
