<svg width="31" height="30" viewBox="0 0 31 30" fill="none" xmlns="http://www.w3.org/2000/svg">
<path fill-rule="evenodd" clip-rule="evenodd" d="M30 12.8889C30 6.81339 30 3.77483 28.1118 1.88822C26.2236 0.00161099 23.1866 0 17.1111 0H13.8889C7.81339 0 4.77483 -1.92059e-07 2.88822 1.88822C1.00161 3.77644 0.999999 6.81339 0.999999 12.8889V16.1111C0.999999 22.1866 1 25.2252 2.88822 27.1118C4.77645 28.9984 7.81339 29 13.8889 29H17.1111C23.1866 29 26.2252 29 28.1118 27.1118C29.9984 25.2236 30 22.1866 30 16.1111V12.8889ZM5.83333 7.25C5.83333 7.89094 6.08795 8.50563 6.54116 8.95884C6.99437 9.41205 7.60906 9.66667 8.25 9.66667C8.89094 9.66667 9.50563 9.41205 9.95884 8.95884C10.4121 8.50563 10.6667 7.89094 10.6667 7.25C10.6667 6.60906 10.4121 5.99437 9.95884 5.54116C9.50563 5.08795 8.89094 4.83333 8.25 4.83333C7.60906 4.83333 6.99437 5.08795 6.54116 5.54116C6.08795 5.99437 5.83333 6.60906 5.83333 7.25ZM12.2778 16.1111C12.2778 16.9657 12.6173 17.7853 13.2215 18.3896C13.8258 18.9939 14.6454 19.3333 15.5 19.3333C16.3546 19.3333 17.1742 18.9939 17.7785 18.3896C18.3827 17.7853 18.7222 16.9657 18.7222 16.1111C18.7222 15.2565 18.3827 14.4369 17.7785 13.8327C17.1742 13.2284 16.3546 12.8889 15.5 12.8889C14.6454 12.8889 13.8258 13.2284 13.2215 13.8327C12.6173 14.4369 12.2778 15.2565 12.2778 16.1111ZM9.05555 16.1111C9.05555 17.8203 9.73452 19.4595 10.9431 20.668C12.1517 21.8766 13.7908 22.5556 15.5 22.5556C17.2092 22.5556 18.8483 21.8766 20.0569 20.668C21.2655 19.4595 21.9444 17.8203 21.9444 16.1111C21.9444 14.4019 21.2655 12.7628 20.0569 11.5542C18.8483 10.3456 17.2092 9.66667 15.5 9.66667C13.7908 9.66667 12.1517 10.3456 10.9431 11.5542C9.73452 12.7628 9.05555 14.4019 9.05555 16.1111Z" fill="#12CA97"/>
</svg>
