<svg width="135" height="27" viewBox="0 0 135 27" fill="none" xmlns="http://www.w3.org/2000/svg">
    <path d="M0 26.1875V1.51249H11.2C13.9767 1.51249 16.1233 2.17749 17.64 3.50749C19.1567 4.81416 19.915 6.64582 19.915 9.00249C19.915 10.5425 19.565 11.8725 18.865 12.9925C18.1883 14.0892 17.2083 14.9408 15.925 15.5475C14.665 16.1308 13.1483 16.4225 11.375 16.4225L11.795 15.6525H13.23C14.2333 15.6525 15.12 15.9208 15.89 16.4575C16.6833 16.9942 17.3367 17.7758 17.85 18.8025L21.525 26.1875H15.505L11.69 18.2425C11.41 17.5658 10.9667 17.1225 10.36 16.9125C9.77667 16.6792 9.1 16.5625 8.33 16.5625H5.46V26.1875H0ZM5.46 12.6425H10.255C11.6783 12.6425 12.7633 12.3508 13.51 11.7675C14.2567 11.1842 14.63 10.3208 14.63 9.17749C14.63 8.03416 14.2567 7.18249 13.51 6.62249C12.7633 6.03916 11.6783 5.74749 10.255 5.74749H5.46V12.6425Z" fill="#31E2B0"/>
    <path d="M23.7677 26.1875V22.1625L36.9277 4.38249V5.99249H23.7677V1.51249H42.1427V5.50249L28.9477 23.2825V21.7075H42.6327V26.1875H23.7677Z" fill="#31E2B0"/>
    <path d="M57.6332 26.5725C54.9966 26.5725 52.7332 26.0475 50.8432 24.9975C48.9532 23.9475 47.4949 22.4775 46.4682 20.5875C45.4649 18.6742 44.9632 16.4225 44.9632 13.8325C44.9632 11.2425 45.4649 9.00249 46.4682 7.11249C47.4949 5.22249 48.9532 3.75249 50.8432 2.70249C52.7332 1.65249 54.9966 1.12749 57.6332 1.12749C59.3366 1.12749 60.8882 1.37249 62.2882 1.86249C63.6882 2.32916 64.8782 3.01749 65.8582 3.92749L64.1432 8.23249C63.0699 7.39249 62.0432 6.79749 61.0632 6.44749C60.1066 6.09749 59.0216 5.92249 57.8082 5.92249C55.4982 5.92249 53.7249 6.61082 52.4882 7.98749C51.2749 9.34083 50.6682 11.2892 50.6682 13.8325C50.6682 16.3758 51.2749 18.3358 52.4882 19.7125C53.7249 21.0892 55.4982 21.7775 57.8082 21.7775C59.0216 21.7775 60.1066 21.6025 61.0632 21.2525C62.0432 20.9025 63.0699 20.3075 64.1432 19.4675L65.8582 23.7725C64.8782 24.6592 63.6882 25.3475 62.2882 25.8375C60.8882 26.3275 59.3366 26.5725 57.6332 26.5725Z" fill="white"/>
    <path d="M69.3082 26.1875V0.42749H74.5932V26.1875H69.3082Z" fill="white"/>
    <path d="M78.9127 26.1875V8.44249H84.1977V26.1875H78.9127ZM78.7027 5.53749V0.602492H84.3727V5.53749H78.7027Z" fill="white"/>
    <path d="M88.5172 26.1875V13.0625C88.5172 12.3158 88.4939 11.5575 88.4472 10.7875C88.4005 9.99416 88.3305 9.21249 88.2372 8.44249H93.3122L93.6972 11.7325H93.2772C93.8605 10.5658 94.6889 9.66749 95.7622 9.03749C96.8355 8.40749 98.0839 8.09249 99.5072 8.09249C101.584 8.09249 103.136 8.69916 104.162 9.91249C105.212 11.1025 105.737 12.9575 105.737 15.4775V26.1875H100.452V15.7225C100.452 14.4392 100.219 13.5292 99.7522 12.9925C99.2855 12.4558 98.5855 12.1875 97.6522 12.1875C96.4855 12.1875 95.5522 12.5608 94.8522 13.3075C94.1522 14.0308 93.8022 15.0108 93.8022 16.2475V26.1875H88.5172Z" fill="white"/>
    <path d="M109.982 26.1875V8.44249H115.267V26.1875H109.982ZM109.772 5.53749V0.602492H115.442V5.53749H109.772Z" fill="white"/>
    <path d="M128.127 26.5725C126.237 26.5725 124.58 26.1992 123.157 25.4525C121.733 24.7058 120.637 23.6325 119.867 22.2325C119.097 20.8325 118.712 19.1758 118.712 17.2625C118.712 15.3258 119.097 13.6808 119.867 12.3275C120.66 10.9508 121.757 9.90082 123.157 9.17749C124.58 8.45416 126.237 8.09249 128.127 8.09249C129.317 8.09249 130.472 8.26749 131.592 8.61749C132.735 8.96749 133.668 9.45749 134.392 10.0875L132.852 13.7275C132.268 13.1908 131.592 12.7942 130.822 12.5375C130.075 12.2575 129.352 12.1175 128.652 12.1175C127.228 12.1175 126.12 12.5608 125.327 13.4475C124.533 14.3342 124.137 15.6175 124.137 17.2975C124.137 18.9775 124.533 20.2608 125.327 21.1475C126.12 22.0342 127.228 22.4775 128.652 22.4775C129.328 22.4775 130.04 22.3492 130.787 22.0925C131.557 21.8358 132.245 21.4508 132.852 20.9375L134.392 24.5425C133.645 25.1725 132.7 25.6742 131.557 26.0475C130.437 26.3975 129.293 26.5725 128.127 26.5725Z" fill="white"/>
</svg>
