<svg width="31" height="25" viewBox="0 0 31 25" fill="none" xmlns="http://www.w3.org/2000/svg">
<path d="M3.80005 24.6246C2.97505 24.6246 2.26905 24.3276 1.68205 23.7336C1.09505 23.1396 0.801049 22.4247 0.800049 21.5889V3.37458C0.800049 2.53976 1.09405 1.82535 1.68205 1.23137C2.27005 0.637379 2.97605 0.339879 3.80005 0.338867H27.8C28.625 0.338867 29.3315 0.636367 29.9195 1.23137C30.5075 1.82637 30.801 2.54077 30.8 3.37458V21.5889C30.8 22.4237 30.5065 23.1386 29.9195 23.7336C29.3325 24.3286 28.626 24.6256 27.8 24.6246H3.80005ZM15.8 13.9996L27.8 6.4103V3.37458L15.8 10.9639L3.80005 3.37458V6.4103L15.8 13.9996Z" fill="#F170A2"/>
</svg>
