<svg width="27" height="31" viewBox="0 0 27 31" fill="none" xmlns="http://www.w3.org/2000/svg">
<path d="M10.8 13.9739C10.8 13.1783 11.1161 12.4152 11.6787 11.8526C12.2413 11.29 13.0044 10.9739 13.8001 10.9739C14.5957 10.9739 15.3588 11.29 15.9214 11.8526C16.484 12.4152 16.8001 13.1783 16.8001 13.9739C16.8001 14.7696 16.484 15.5326 15.9214 16.0953C15.3588 16.6579 14.5957 16.9739 13.8001 16.9739C13.0044 16.9739 12.2413 16.6579 11.6787 16.0953C11.1161 15.5326 10.8 14.7696 10.8 13.9739Z" fill="#C54273"/>
<path fill-rule="evenodd" clip-rule="evenodd" d="M0.800049 13.9739C0.80164 10.5273 2.17204 7.22249 4.6099 4.78613C7.04776 2.34977 10.3535 0.981403 13.8 0.981934C20.978 0.981934 26.8 6.79993 26.8 13.9739C26.8 19.3219 24.124 23.5599 21.256 26.4239C19.9882 27.6972 18.5674 28.8084 17.026 29.7319C16.382 30.1119 15.78 30.4119 15.256 30.6159C14.762 30.8119 14.244 30.9639 13.8 30.9639C13.356 30.9639 12.838 30.8119 12.344 30.6159C11.7323 30.367 11.1406 30.0715 10.574 29.7319C9.03274 28.8083 7.6119 27.6972 6.34405 26.4239C3.47605 23.5599 0.800049 19.3219 0.800049 13.9739ZM13.8 8.97593C12.474 8.97593 11.2022 9.50272 10.2645 10.4404C9.32683 11.3781 8.80005 12.6499 8.80005 13.9759C8.80005 15.302 9.32683 16.5738 10.2645 17.5115C11.2022 18.4491 12.474 18.9759 13.8 18.9759C15.1261 18.9759 16.3979 18.4491 17.3356 17.5115C18.2733 16.5738 18.8 15.302 18.8 13.9759C18.8 12.6499 18.2733 11.3781 17.3356 10.4404C16.3979 9.50272 15.1261 8.97593 13.8 8.97593Z" fill="#C54273"/>
</svg>
