<svg xmlns="http://www.w3.org/2000/svg" width="304" height="578" viewBox="0 0 304 578" fill="none">
    <path opacity="0.5" d="M83.835 397.98V360.039C83.835 336.359 88.2749 314.563 97.1546 294.651C106.034 274.2 121.182 252.673 142.598 230.07C157.746 213.925 168.454 199.663 174.722 187.285C180.99 174.369 184.124 161.991 184.124 150.151C184.124 134.544 178.378 122.435 166.887 113.824C155.395 105.213 139.464 100.908 119.093 100.908C98.7216 100.908 78.0893 104.406 57.1959 111.402C36.8247 118.399 17.7594 127.547 0 138.849V36.3268C18.8041 25.0251 40.4811 16.1452 65.0309 9.68712C90.1031 3.22904 114.392 0 137.897 0C169.237 0 197.443 4.84358 222.515 14.5307C248.11 23.6797 267.959 37.9413 282.062 57.3156C296.687 76.6899 304 101.984 304 133.198C304 150.958 300.866 168.18 294.598 184.863C288.33 201.547 279.45 217.154 267.959 231.684C256.99 246.215 243.931 259.939 228.783 272.855C203.189 294.382 185.43 312.949 175.505 328.556C166.103 343.625 160.357 358.694 158.268 373.763L155.134 397.98H83.835ZM55.6289 578V448.838H183.34V578H55.6289Z" fill="#31E3B0"/>
</svg>