<svg width="31" height="31" viewBox="0 0 31 31" fill="none" xmlns="http://www.w3.org/2000/svg">
<path d="M6.83338 13.0195C9.23338 17.7361 13.1 21.5861 17.8167 24.0028L21.4834 20.3361C21.9334 19.8861 22.6001 19.7361 23.1834 19.9361C25.0501 20.5528 27.0667 20.8861 29.1334 20.8861C30.0501 20.8861 30.8001 21.6361 30.8001 22.5528V28.3695C30.8001 29.2861 30.0501 30.0361 29.1334 30.0361C13.4834 30.0361 0.800049 17.3528 0.800049 1.7028C0.800049 0.786133 1.55005 0.0361328 2.46672 0.0361328H8.30005C9.21672 0.0361328 9.96672 0.786133 9.96672 1.7028C9.96672 3.78613 10.3 5.78613 10.9167 7.6528C11.1 8.23613 10.9667 8.88613 10.5 9.3528L6.83338 13.0195Z" fill="#31E2B0"/>
</svg>
